# xmcd
#
# Track frame offsets:
#	150
#	15264
#	29165
#	42304
#	59512
#	73891
#	85178
#	100421
#	113728
#	131994
#	157481
#
# Disc length: 2376 seconds
#
# Revision: 0
# Processed by: cddbd v1.5PL3 Copyright (c) Steve Scherf et al.
# Submitted via: dBpowerAMP V4.0
#
DISCID=a209460b
DTITLE=Mike Headrick - Slanted
DYEAR=1900
DGENRE=Country
TTITLE0=Strong as Steel
TTITLE1=San Antonio Slant
TTITLE2=Tears on The Bar
TTITLE3=Swang Thing
TTITLE4=Wishing
TTITLE5=West Coast Turnaround
TTITLE6=Steel of The Night
TTITLE7=Springtime in Austin
TTITLE8=When You Let go of Me
TTITLE9=Straighten Up
TTITLE10=DATA
EXTD=
EXTT0=
EXTT1=
EXTT2=
EXTT3=
EXTT4=
EXTT5=
EXTT6=
EXTT7=
EXTT8=
EXTT9=
EXTT10=
PLAYORDER=
